<svg width="199" height="163" viewBox="0 0 199 163" fill="none" xmlns="http://www.w3.org/2000/svg">
<path fill-rule="evenodd" clip-rule="evenodd" d="M88.7649 77C44.2649 95 10.765 57.5 8.26494 13.5C29.3197 24.0274 47.6742 28.7819 62.3341 32.5793C95.7171 41.2267 109.942 44.9113 93.2649 100.5C56.7649 100.5 24.2649 102.5 9.26493 161.5C54.2649 164 93.2649 128.5 96.7649 107.5C129.265 104 143.265 91 150.265 83.5C165.865 61.9 168.765 61 198.765 58C180.765 57 167.765 50.5556 153.265 42.5C131.665 30.5 118.265 40.5 114.265 47C171.765 28 166.265 91 101.265 99.5C118.138 39.1459 97.528 34.1744 64.0334 26.095C45.916 21.7248 24.0289 16.4454 2.26496 1C-7.23507 37 38.2649 117 88.7649 77ZM89 108.5C86 119.5 64 150.5 18.5 153.5C36.0388 107.046 62.5656 107.778 85.2988 108.406C86.5446 108.44 87.7791 108.474 89 108.5Z" fill="white"/>
<path d="M8.26494 13.5L8.48854 13.0528L7.7168 12.6669L7.76574 13.5284L8.26494 13.5ZM88.7649 77L89.0754 77.3919L88.5774 76.5365L88.7649 77ZM62.3341 32.5793L62.4595 32.0953L62.4595 32.0953L62.3341 32.5793ZM93.2649 100.5V101H93.6369L93.7438 100.644L93.2649 100.5ZM9.26493 161.5L8.78035 161.377L8.63067 161.966L9.2372 161.999L9.26493 161.5ZM96.7649 107.5L96.7114 107.003L96.3341 107.044L96.2717 107.418L96.7649 107.5ZM150.265 83.5L150.63 83.8412L150.652 83.8182L150.67 83.7927L150.265 83.5ZM198.765 58L198.815 58.4975L198.793 57.5008L198.765 58ZM153.265 42.5L153.508 42.0629L153.508 42.0629L153.265 42.5ZM114.265 47L113.839 46.738L113.121 47.9045L114.422 47.4748L114.265 47ZM101.265 99.5L100.783 99.3654L100.58 100.094L101.33 99.9958L101.265 99.5ZM64.0334 26.095L63.9161 26.5811L64.0334 26.095ZM2.26496 1L2.55433 0.592246L1.96568 0.174496L1.78151 0.872423L2.26496 1ZM18.5 153.5L18.0322 153.323L17.7579 154.05L18.5329 153.999L18.5 153.5ZM89 108.5L89.4824 108.632L89.6509 108.014L89.0106 108L89 108.5ZM85.2988 108.406L85.3126 107.906L85.3126 107.906L85.2988 108.406ZM7.76574 13.5284C9.0219 35.6366 18.0665 56.1457 32.4334 68.8742C46.8225 81.6225 66.5228 86.5362 88.9524 77.4635L88.5774 76.5365C66.507 85.4638 47.2074 80.6275 33.0965 68.1258C18.9634 55.6043 10.008 35.3634 8.76413 13.4716L7.76574 13.5284ZM62.4595 32.0953C47.8021 28.2985 29.4923 23.5547 8.48854 13.0528L8.04133 13.9472C29.1471 24.5001 47.5463 29.2652 62.2087 33.0633L62.4595 32.0953ZM93.7438 100.644C97.9172 86.7325 100.168 76.0362 100.661 67.6814C101.155 59.3234 99.8923 53.2647 96.9948 48.67C94.0967 44.0742 89.6065 41.0129 83.7898 38.5621C77.9816 36.1149 70.7937 34.2541 62.4595 32.0953L62.2087 33.0633C70.5661 35.2282 77.6748 37.0708 83.4015 39.4836C89.1198 41.8929 93.4027 44.8484 96.149 49.2034C98.8958 53.5593 100.149 59.3851 99.6628 67.6225C99.1762 75.8631 96.951 86.4731 92.786 100.356L93.7438 100.644ZM9.74952 161.623C17.2283 132.207 29.0409 117.102 43.4403 109.315C57.8755 101.509 74.9994 101 93.2649 101V100C75.0305 100 57.6543 100.491 42.9646 108.435C28.2389 116.398 16.3016 131.793 8.78035 161.377L9.74952 161.623ZM96.2717 107.418C95.4156 112.555 92.3742 118.634 87.5498 124.842C82.7312 131.041 76.1587 137.336 68.2886 142.904C52.5453 154.043 31.6547 162.243 9.29267 161.001L9.2372 161.999C31.8752 163.257 52.9845 154.957 68.8662 143.721C76.8087 138.101 83.4549 131.74 88.3394 125.455C93.2182 119.178 96.3643 112.945 97.2581 107.582L96.2717 107.418ZM149.899 83.1588C142.962 90.5918 129.067 103.518 96.7114 107.003L96.8185 107.997C129.463 104.482 143.568 91.4082 150.63 83.8412L149.899 83.1588ZM198.715 57.5025C183.749 58.9991 175.414 59.9774 168.886 63.3302C162.339 66.6934 157.649 72.4215 149.86 83.2073L150.67 83.7927C158.481 72.9785 163.041 67.4566 169.343 64.2198C175.665 60.9726 183.781 60.0009 198.815 58.4975L198.715 57.5025ZM153.022 42.9371C167.534 50.9993 180.618 57.4926 198.737 58.4992L198.793 57.5008C180.912 56.5074 167.996 50.1119 153.508 42.0629L153.022 42.9371ZM114.691 47.262C116.629 44.1118 120.879 40.0708 127.298 38.2944C133.702 36.5223 142.318 36.9902 153.022 42.9371L153.508 42.0629C142.612 36.0098 133.728 35.4777 127.032 37.3306C120.351 39.1792 115.9 43.3882 113.839 46.738L114.691 47.262ZM101.33 99.9958C133.952 95.7299 151.835 77.7564 154.196 63.0166C155.382 55.6149 152.634 49.027 145.861 45.5474C139.134 42.0918 128.54 41.7565 114.108 46.5252L114.422 47.4748C128.74 42.7435 139.021 43.1582 145.404 46.4369C151.74 49.6918 154.336 55.8226 153.209 62.8584C150.945 76.9936 133.578 94.7701 101.2 99.0042L101.33 99.9958ZM63.9161 26.5811C72.2998 28.6033 79.8301 30.4208 86.1688 32.9501C92.5007 35.4767 97.5958 38.696 101.135 43.4914C108.211 53.0802 109.219 69.1923 100.783 99.3654L101.746 99.6346C110.184 69.4535 109.323 52.9029 101.939 42.8976C98.2482 37.8959 92.965 34.5853 86.5395 32.0213C80.1207 29.4601 72.5143 27.6264 64.1506 25.609L63.9161 26.5811ZM1.97559 1.40775C23.826 16.9145 45.7994 22.2111 63.9161 26.5811L64.1506 25.609C46.0326 21.2386 24.2317 15.9762 2.55433 0.592246L1.97559 1.40775ZM88.4545 76.6081C75.9316 86.5271 63.7693 88.9757 52.7148 86.5739C41.6382 84.1673 31.6024 76.8747 23.3966 67.177C15.1935 57.4824 8.84915 45.418 5.14857 33.5388C1.44511 21.6504 0.406303 10.0029 2.74841 1.12758L1.78151 0.872423C-0.626397 9.9971 0.459783 21.8496 4.19382 33.8362C7.93073 45.832 14.3364 58.0176 22.6332 67.823C30.9275 77.6253 41.1416 85.0827 52.5025 87.5511C63.8856 90.0243 76.3482 87.4729 89.0754 77.3919L88.4545 76.6081ZM18.5329 153.999C41.3964 152.491 58.3691 143.947 70.0049 134.386C81.6228 124.841 87.9478 114.258 89.4824 108.632L88.5176 108.368C87.0522 113.742 80.8772 124.159 69.3701 133.614C57.8809 143.053 41.1036 151.509 18.4671 153.001L18.5329 153.999ZM85.3126 107.906C73.9624 107.592 61.5271 107.241 49.7368 112.846C37.9208 118.462 26.8322 130.015 18.0322 153.323L18.9678 153.677C27.7067 130.53 38.6509 119.222 50.1662 113.749C61.7072 108.263 73.9019 108.591 85.285 108.905L85.3126 107.906ZM89.0106 108C87.7915 107.974 86.5587 107.94 85.3126 107.906L85.285 108.905C86.5305 108.94 87.7666 108.974 88.9894 109L89.0106 108ZM19.2374 153.664C19.2385 153.66 19.2396 153.657 19.2406 153.654C19.2417 153.651 19.2427 153.648 19.2437 153.645L18.2987 153.318C18.2977 153.321 18.2966 153.325 18.2955 153.328C18.2945 153.331 18.2934 153.334 18.2924 153.336L19.2374 153.664Z" fill="white"/>
</svg>
